<svg class="w-full h-full object-contain fill-current" xmlns="http://www.w3.org/2000/svg" xml:space="preserve" style="enable-background: new 0 0 3623.9 1484.3;" viewBox="0 0 3623.9 1484.3"> <path d="M1139.9 690.1h339.2c12.1.1 12.1.1 12.1 12.2V1408c0 4.5.4 8.9.6 12.9 1.7.4 2 .6 2.3.6.3 0 .7 0 1-.2.8-.6 1.6-1.2 2.3-1.9 149.4-181.5 298.7-362.9 448.7-545.2-62.1-76.9-124-153.7-186.9-231.6 58.2-20.7 113.7-42.8 165.4-73.4 51.7-30.7 99.5-66.6 147.2-105 2.5 2.9 4.9 5.4 6.9 8.2 21.1 30 42 60 63 90 9 12.8 17.9 25.7 26.9 38.5 1.5 2.1 3.4 3.9 5.7 6.5 2.2-2.4 4.1-4.1 5.6-6.1 24.5-33.3 48.9-66.5 73.3-99.9 27.3-37.3 54.6-74.8 81.9-112.1 35.4-48.4 70.9-96.6 106-145.2 5.9-8.2 12.1-11.3 22.3-11.3 382 .3 764 .2 1146 .2h14c1.3 26.1.4 51.2.6 76.4.2 25.7 0 51.3 0 77v152.8h-344.2c-.5 3.5-1.1 6.1-1.2 8.6-.2 3-.1 6-.1 9v882.7c0 16.3 1.3 15.5-15.9 15.5h-331c-14.1 0-14.1 0-14.1-14.4V540.3c-4.1-.3-7.3-.7-10.5-.7-83.3 0-166.7 0-250-.1-6.7 0-10.8 2.1-14.7 7.7-56.2 80.2-112.6 160.1-168.9 240.1-18.2 25.9-36.4 51.7-54.5 77.6-2.1 3-4 6-6.5 9.7 19.4 24.5 38.6 48.7 57.8 72.9 19 24 38.1 48 57.2 71.9l57.9 72.6c19.1 24 38.2 47.9 57.3 71.9 19.3 24.2 38.5 48.5 57.8 72.7 19.1 24 38.2 47.9 57.3 71.9 19.3 24.2 38.8 48.3 57.8 72.7 18.7 24 38.6 47 57.5 73.3-5.5.3-8.7.6-11.8.6-141.3 0-282.7 0-424 .2-7.7 0-12.7-2.1-17.4-8.5-36.5-50-73.4-99.8-110.2-149.6-35.4-48-70.8-95.9-106.2-143.9-7.3-9.9-14.6-19.9-22-29.7-1.9-2.6-4.1-5-8.1-9.8-1.5 3-2.1 4.9-3.3 6.5-41.2 53.1-82.6 106.1-123.8 159.3-43.5 56-86.9 112.1-130.2 168.3-4 5.2-8.4 7.5-15.1 7.5-250.3-.2-500.6-.1-751-.2-3.2 0-6.5-.3-9.5-.5-2.7-8.5-3-753.8-.5-764.6zM996.5 575.7c-13.7-4.2-26-8.3-38.3-11.8-37.1-10.7-74.1-21.5-111.4-31.5-27.3-7.3-54.7-14.4-82.5-20-37.2-7.5-74.6-13.8-112.1-19.8-36.9-5.9-74.2-8.4-111.5-8.6-33.7-.2-67.3 1.5-100.3 9.1-17.2 4-34 9.3-49.4 18.2-19.4 11.2-34.8 26.1-40.6 48.4-7.7 29.6-1.4 58.1 23.8 78.1 17.6 13.9 37.7 22.7 59 28.3 27.3 7.1 55.1 12.9 82.8 18.4 20.6 4 41.4 6.7 62.2 9.8 19.1 2.9 38.3 5.1 57.3 8.4 37.7 6.7 75.4 13.5 112.9 21 34.3 6.9 67.7 17.2 100.3 29.8 54.3 21.1 103.6 50.2 143.1 93.9 26.9 29.8 46.4 64 59.3 102 11 32.7 16.9 66.3 19.2 100.7 1.9 28.7 1.6 57.3-1.4 85.8-7 66.9-27.9 128.6-70.7 181.6-29.4 36.5-65.5 65.2-106.7 87.5-39.4 21.3-81.1 36.6-124.4 48-63.1 16.5-127.4 24.1-192.3 29.1-56.3 4.3-112.6 3.5-168.8 1.8-37.6-1.2-75.1-4.9-112.5-8.7-31.5-3.2-62.9-7.5-94-12.7-24.9-4.2-49.5-10.3-74.2-15.9-33.4-7.7-66-18.3-98-30.6-2.8-1.1-5.6-2.3-8.4-3.2-3.4-1.1-4.6-3.5-4.7-6.8 0-2.7-.1-5.3-.1-8v-267.9c0-3.9.3-7.8.5-13.1 8.8 2.5 16.4 4.5 23.9 6.7 33.1 9.9 66 20.7 99.4 29.7 33.4 9 67.1 16.8 101 24.2 26.3 5.7 52.9 10.8 79.6 14.6 32.3 4.6 64.8 7.8 97.3 11.2 37.9 3.9 75.9 3.6 113.9 1.9 34-1.5 67.8-4.9 100.8-14 19.6-5.5 38.3-13.1 54.7-25.8 37.4-29 39.3-90.5-6.2-119-18.3-11.5-38-19.1-58.6-24.8-38.9-10.8-78.7-16.9-118.7-22.4-17.5-2.4-34.9-5.2-52.4-7.9-28.6-4.6-57.4-8.4-85.7-14.2-30.3-6.2-60.5-13.3-90.3-21.6-36.9-10.3-72.5-24.2-106.2-42.7C99.6 875.6 50.3 822.7 23.6 750c-10.5-28.5-16.3-58.2-20.1-88.4C-.1 633.3-1 605 1.2 576.8 8 487.7 37.6 408.1 102.7 344.2c34.9-34.2 75.4-59.9 120.1-79.4 33.6-14.7 68.5-25.5 104.3-33.6 40-9.2 80.5-14.7 121.4-17.9 74.3-5.8 148.5-3.9 222.6 3.5 49.4 4.9 98.4 12.3 147.2 21.4 50.1 9.4 99.5 21.6 148.8 34.2 7.4 1.9 14.7 4.3 22 6.4 7.5 2.2 7.6 2.3 7.9 10.3.1 1.7 0 3.3 0 5V562c0 4.2-.3 8.3-.5 13.7z"></path> <path d="M1140.9 587.9c-2-15.8-1.3-283.6.8-292.1 3.9-.3 8.1-.7 12.3-.8 53-.5 106 0 159-1.6 34.6-1 69.2-3.7 103.6-7.8 35.3-4.2 70.5-10.1 105.4-16.9 65.2-12.8 128.3-32.2 187-64.1 71-38.6 127.4-92.5 169.8-161.1 7.3-11.9 14.3-24 20.9-36.3 2.7-5.1 5.7-7.1 11.6-7.1 111.3.2 222.7.1 334 .1 2.3 0 4.5.3 8.1.6-2.8 9.1-5.1 17.7-8 26-14.6 41.5-31.5 82-52.2 120.8-43.4 81.4-99.3 152.8-169.3 213.1-53.8 46.4-113 84.4-176.7 115.5-42.2 20.6-85.7 38.1-130.7 51.8-28.3 8.6-56.7 17.1-85.4 24.1-26.5 6.4-53.5 10.7-80.3 15.8-46.5 8.8-93.6 13.2-140.8 16.7-31.5 2.4-63.3 3-94.9 3.3-54.3.5-108.7 0-163 0h-11.2z"></path> </svg>