<svg class="w-full h-full object-contain fill-current" xmlns="http://www.w3.org/2000/svg" xml:space="preserve" style="enable-background: new 0 0 1024 297;" viewBox="0 0 1024 297"> <path d="M700 0c1.2.5 2.4 1.1 3.6 1.4 16.3 4.3 25 16.8 22.8 33.6-.4 2.9.5 4.3 2.5 5.8 30.3 22.9 60.5 45.9 90.8 68.7 1.3 1 3.7 1.2 5.2.8 6.2-1.7 12.3-4.1 18.5-5.7 2.8-.7 3.9-1.8 3.9-4.6-.1-9.7.2-19.3-.2-29-.1-1.9-2-4.3-3.8-5.6-9.1-6.3-13.2-15.1-11.8-25.8 1.4-10.7 7.7-18.2 18.3-21.6 12.3-4 26.1 2 31.6 13.6 5.6 11.9 1.9 26.1-9 33.1-3.6 2.3-4.9 4.7-4.7 8.9.3 7.8.4 15.7 0 23.5-.3 5.2 1.6 7.1 6.6 8.2 26.4 6.2 44.9 22 53.8 47.8 14.5 42.1-13.8 87.5-58 93.7-19.2 2.7-37.1-.8-53.6-10.9-2.7-1.7-4.3-1.3-6.4.9-7.7 7.9-15.4 15.7-23.3 23.3-2.5 2.4-3.3 4.8-3.1 8.3.7 14.6-8.3 25-21.4 25.2-13.3.3-23.1-9.8-22.9-23.5.2-12.5 10.6-22.4 23.4-21 6.2.7 9.8-1.3 13.7-5.5 6.3-6.8 13.1-13.3 19.7-19.8 1.9-1.9 2.7-3.3.8-5.9-20.1-27-18.1-69.1 7.2-93.2.6-.5 1-1.3 1.7-2.4-1.5-1.2-2.9-2.4-4.3-3.4-28.3-20.5-56.7-41-85.1-61.3-1.6-1.2-4.7-1.5-6.6-.8-16.6 6.5-34-.7-39.6-16.8-5.9-16.8 3.1-33.4 20.7-38.4 1.4-.4 2.7-1.1 4.1-1.7 1.6.1 3.2.1 4.9.1zm156.9 216.5c20.9.2 41.4-19.4 41-40.2-.4-22.1-15.9-40.5-40.1-41.2-21.3-.7-40.9 19.2-41.1 41.2-.2 20.9 18.8 40 40.2 40.2zM0 56h35.6v79h76.1V56.4h34.7v193.2h-34.7v-80.5H35.8V250H0V56z"></path> <path d="M618 297c.1-2.3.2-4.7.2-7 0-37.5-.2-75 .1-112.5.1-22.2 7.1-42 23.8-57.3 24.7-22.6 61.1-24 89.6-3.1 24.5 17.9 34.3 42.7 28.6 72.3-5.7 29.7-23.9 49.5-53.6 56.7-18.8 4.6-36.8 2.1-51.9-11.4-.6-.5-1.3-1-2-1.5-.1-.1-.3.1-.9.2-.1.8-.3 1.7-.3 2.6v58.5c0 .8.2 1.6.4 2.4-11.3.1-22.7.1-34 .1zm33.3-121.5c.5 3.6.7 7.3 1.7 10.8 4.5 15.1 14 25.6 29.4 29.8 13.7 3.7 25.6-.1 35.4-10.3 16.6-17.3 16.3-44.8-.7-61.7-7.4-7.4-16.3-11.8-26.8-11-22.4 1.7-38.7 19.9-39 42.4zM1024 220c-2.5 8.4-5 16.8-7.3 25.2-.8 2.7-2.1 4.3-5 4.5-11.2.6-22.3.5-32.9-3.9-18-7.4-25.9-21.7-26-40.5-.2-39.1-.1-78.3 0-117.4 0-1.3.9-3.4 2-3.9 10-4.7 20.2-9.2 31.1-14.2v27c0 2.5.2 5 0 7.5-.3 3.8 1.4 4.9 5 4.8 8.5-.2 16.9-.1 25.8-.1v28.7c-8.6 0-17 .2-25.5-.1-4.1-.1-5.4 1.2-5.4 5.3.2 17.7 0 35.3.1 53 .1 15.4 7.5 22.9 23 23.2 5 .1 10-.1 15-.2.1.4.1.8.1 1.1zM348.1 119.5c1.3-.4 1.9-.4 2.1-.6 25.6-26.3 77.3-15.7 98.1 20.2 26.4 45.5-1 102-53.1 109.9-41.5 6.3-74.5-23.6-79.2-61.5-.6-5.1-.9-10.3-.9-15.4-.1-37.2 0-74.3 0-111.5 0-1.3.1-2.6.2-4.2H348c.1 21.1.1 42 .1 63.1zm40.7 100c2.5-.3 5-.4 7.4-1 21.6-5.3 35.1-29.7 29.4-52.1-4.9-19.4-24-34.9-43.6-30.8-19.6 4-35.2 23.5-33.7 43.5 1.7 23 18.9 40.1 40.5 40.4zM475.4 220.7c8.6-7.9 16.8-15.5 24.5-22.6 2.8 2.4 6.3 5.3 9.5 8.3 8.6 8.2 19 10.9 30.4 9.5 10-1.2 18.7-9.8 20.2-18.9 1.4-8.6-3-17-12.6-21.8-8-4-16.6-6.8-24.9-10.1-5.4-2.2-10.9-4.2-16-6.8-23-11.4-29.6-30.4-26.9-52.9 3.3-27.5 22.2-44.7 49.8-48.3 24-3.2 44.3 3.6 61.4 20.5.9.9 1.6 2 2.7 3.3-7.1 8.4-14.1 16.6-21.4 25.1-2.7-2.2-5.3-4.5-8.1-6.5-9.9-7.1-20.3-12.1-33-8.7-8.8 2.4-14.3 8.7-15.3 17.7-1 9.5 1.9 15.5 11.1 19.6 8.2 3.6 16.9 6.1 25.3 9.1 4.8 1.8 9.7 3.6 14.3 5.7 24.4 11.3 32 33.5 29.7 57.8-2.7 29.3-27 45.1-50.7 48.3-28.2 3.8-51-5.7-70-28.3zM260.4 149c0-13.5.1-27-.1-40.5 0-3.7.7-5.4 4.9-5.2 8.1.3 16.3.2 24.5.1 2.7 0 3.9.8 3.9 3.7-.3 29.3.4 58.7-1 87.9-1.2 25.8-23.9 49.1-49.6 53.8-35.2 6.4-66.7-14.7-74.2-49.6-.9-4.4-1.4-8.9-1.4-13.4-.1-25.7.1-51.3-.2-77 0-4.5 1.3-5.7 5.7-5.5 7.3.3 14.7.4 22 0 4.9-.3 5.8 1.6 5.7 6-.2 25.3-.2 50.6 0 76 .1 16.8 9.6 28.4 25.6 31.3 16.3 3 33.5-10.4 34-27.1.4-13.5.1-27 .2-40.5-.1 0 0 0 0 0z"></path> </svg>