<svg class="w-full h-full object-contain fill-current" xmlns="http://www.w3.org/2000/svg" xml:space="preserve" style="enable-background: new 0 0 1800 325.7;" viewBox="0 0 1800 325.7"> <path d="M636 1.7c-59.4 13-88.4 76.5-57.9 126.9 23.9 39.4 77.6 53.9 121.4 32.7 20.3-9.8 37.1-28.3 44-48.5 3.4-10 4.6-17.6 4.6-28.6-.1-27.4-14.2-53-38-68.8-8.4-5.6-15.5-8.8-27-12.2-11.9-3.6-34.4-4.3-47.1-1.5zm39.3 25.5c13.7 4.4 25.7 13.3 33.3 24.7 14.6 22 13.2 50.8-3.4 71.5-26.7 33.1-81.1 28.8-101.7-8.1-6-10.6-7.7-17.4-7.8-30 0-9.7.3-12 3-19.7 6.7-19.2 21.4-33 41.7-39 7.4-2.2 27.2-1.9 34.9.6zM1492 1.7c-42.7 9.1-71.9 45.7-69.7 87.6.7 13.5 3.3 23.2 9.3 34.3 17.2 32.6 50.3 49.9 90 47.1 33-2.4 63-23.1 76-52.6 6.8-15.3 8.6-36.8 4.5-52.8-8.4-32.6-35.6-57.1-70.9-64.1-10.1-1.9-28.6-1.7-39.2.5zm35.7 24.6c26.9 6.3 46 29.3 46.9 56.5 1.2 35-26.1 63-61.5 63.1-19.5 0-37.5-8.6-48.7-23.4-8.9-11.8-12.8-23.4-12.8-38.2.1-27.5 19.2-51.4 46.3-58 7.5-1.8 22.2-1.8 29.8 0zM0 85.7v80.8l13.8-.1 13.7-.1.3-31.3.2-31.2h56.7L101 133c9 16.1 16.9 30.3 17.6 31.5 1.3 2.1 1.9 2.2 16.9 2.1 8.9 0 15.5-.4 15.5-1 0-.5-8.3-15.1-18.5-32.5-10.2-17.3-18.5-31.8-18.5-32.2 0-.3 3.4-2.3 7.5-4.5 30-15.4 36.6-52.5 13.4-75.7-6.8-6.8-15-11.2-25.7-14-6.9-1.8-11.4-1.9-58.4-1.9H0v80.9zm106-53.5c9.2 4.8 14.4 12.9 14.4 22.1 0 9.7-5.7 18-15.4 22.4-4.3 1.9-6.5 2.1-40.7 2.1H28V29.7l37.3.3c34 .3 37.5.5 40.7 2.2zM202.2 85.5l.3 80.8h137v-12.5c0-9.3-.3-12.5-1.2-12.6-.7-.1-25.4-.2-54.8-.3l-53.5-.1v-46l28.8-.1c15.8-.1 29.7-.2 31-.2 2.2-.1 2.2-.3 2.2-12.8 0-9.5-.3-12.7-1.2-12.6-.7 0-14.7-.1-31-.1l-29.8-.2v-39l51.8-.2 51.7-.3v-24L267.7 5 202 4.8l.2 80.7zM371.4 18.5c3.5 7.6 9.4 20.3 13.1 28.3 3.7 8 8.3 17.9 10.2 22 1.9 4.1 7.2 15.6 11.8 25.5s14 30.1 20.9 45l12.5 27 10.7.3c5.9.2 11.7.1 12.9-.2 1.7-.4 3.7-3.8 8.5-14.3 3.5-7.6 9-19.4 12.2-26.2 3.2-6.8 5.8-12.5 5.8-12.6 0-.2 2.3-5.1 5.1-11 7.2-15.4 44-94.8 44.6-96.3.4-1-2.7-1.2-14.8-1l-15.4.3-10.8 24.5c-6 13.5-18.4 41.5-27.6 62.3S453.9 130 453.4 130s-13.3-28.1-28.5-62.3L397.2 5.3l-16-.3-16.1-.2 6.3 13.7zM798 85.8v81.1l63.5-.1 63.5-.1v-13c0-11.8-.2-13-1.7-12.8-1 .1-23.3.1-49.5 0l-47.8-.1V4.8h-28v81zM961.3 62.5c.3 51.3.6 58.5 2.1 63.7 5.4 18.2 17.9 31.7 36.3 39.1 18.3 7.4 46.8 7.5 65.8.4 12-4.5 23.6-13.6 30.1-23.6 1.8-2.8 4.6-8.7 6.1-13l2.8-7.8.3-58.3.3-58.2h-28l-.3 56.2c-.3 55.8-.3 56.3-2.6 61.9-5.7 14.3-21.2 22.9-41.2 22.9-15.3 0-26.4-4.3-34.7-13.4-9-9.8-8.7-7.2-9.1-71.4l-.3-56.2h-28l.4 57.7zM1145 17.3v12.5h64v136.9l14-.1h14V29.8h63v-25h-155v12.5zM1344 85.7v80.9h28V4.8h-28v80.9zM1654.2 85.5l.3 80.8 13.7.2 13.8.2.2-56.1.3-56 46.5 55.9 46.5 55.8 12.3.3 12.2.3V4.8h-28l-.2 55.4-.3 55.5-46-55.4-46-55.4h-12.8l-12.7-.1.2 80.7zM989.5 259.8c-9.7 2.4-19.7 10.5-23.6 19.3-3.4 7.6-3.3 19.1.2 26.7 3.3 6.9 9.5 13.1 16.7 16.7 5.2 2.5 6.7 2.8 16.2 2.8 12.6-.1 17.3-1.8 25.4-9.5 7.5-7 10.1-13.2 10-23.5 0-9.4-2.1-14.9-8-21.5-4.9-5.4-9.6-8.4-16.4-10.4-5.5-1.7-15.3-2-20.5-.6zm22.1 12.6c20.4 12.6 11.3 43.4-12.8 43.4-17.1 0-28.7-17.6-21.7-33 2.7-6 5.4-8.8 11.4-11.7 7.2-3.4 16.3-2.9 23.1 1.3zM1238.5 260.1c-15.6 5.2-24.9 17.3-24.8 32.3 0 12.8 6.8 23.4 18.8 29.7 5.6 3 6.6 3.2 16.5 3.2 9.3 0 11.2-.3 16.2-2.7 6.9-3.2 13.4-9.6 16.8-16.3 2.1-4.2 2.5-6.4 2.5-14 0-10.5-2.2-16.2-9.1-23.1-6.5-6.6-14.1-9.7-24.3-10.1-5.2-.2-10.2.2-12.6 1zm21 11.1c8.6 4 13.6 11.7 13.7 21 .1 17.7-18.8 29.1-35 21-10-5-15-16.6-11.9-27.5 4.1-14 19.7-20.8 33.2-14.5zM429 292.3v31.5h23.7c22.1 0 24-.1 28.1-2.1 8.7-4.3 12.5-15 8.4-24.2-1.1-2.5-3.3-5.3-4.9-6.3L481 289c-.3-.2.3-.8 1.3-1.3 3.4-1.9 5.3-7.7 4.8-14.6-.1-3-5.8-9.3-9.8-10.9-2.4-1-9.1-1.4-25.8-1.4H429v31.5zm44.5-19c3.3 3.3 3.2 7-.4 10.6l-2.9 2.9h-14.6c-12.3 0-14.6-.2-14.7-1.5v-13.5c.1-.6 5.8-1 15.1-1 14.7 0 15.2.1 17.5 2.5zm3.1 25.8c2.9 3.4 3.2 8.5.5 11.8-1.8 2.3-2.6 2.4-17.4 2.9-8.5.3-16.2.4-17.1.2-1.3-.3-1.6-1.8-1.6-9.3v-9l16.6.3 16.6.3 2.4 2.8zM512 292.3v31.5h54v-10h-43v-18H547.7l-.1-4.8-.1-4.7-12.2-.3-12.3-.3v-14.9h41v-10h-52v31.5zM601.7 268.5c-2 4.3-8.5 18.5-14.6 31.6l-11 23.8 6.1-.3 6-.3 3.6-8.3 3.6-8.3 14.9.3 14.9.3 3.7 8.2 3.6 8.3h12.4L639 311c-5.5-12.1-9.1-19.9-19-41l-4.3-9.2h-10.4l-3.6 7.7zm9 29.1c-5.5.1-10.2.1-10.4-.2-.3-.2 1.2-4.2 3.2-8.8 2.1-4.5 4.4-9.8 5.2-11.7l1.5-3.5 5.3 12 5.3 11.9-10.1.3zM659.2 285.1l.3 24.4 3 4.8c4.5 7.2 11.4 10.7 22 11.3 11.3.6 18.2-1.5 24-7.2 2.5-2.6 4.8-6 5.4-8.2.6-2.3 1.1-13.6 1.1-26.7v-22.7h-10.9l-.3 23.4c-.3 23.4-.3 23.4-2.8 26.2-3.4 3.7-8 5.4-14.2 5.4-6.5 0-11.5-2.4-14.5-6.9-2.2-3.3-2.3-4.2-2.3-25.7v-22.4h-11.1l.3 24.3zM731 265.8v5h25v53h11v-53h25v-10h-61v5zM800.6 262c.4.7 5.8 7.8 11.9 15.8 6.1 8 11.4 15.1 11.9 15.8.4.7.7 7.8.7 15.8l-.2 14.4H837V294.5l11.8-15.6c6.5-8.6 12.2-16.2 12.6-16.9.5-.9-.8-1.2-5.6-1.2h-6.4l-8.9 12c-4.9 6.6-9.2 11.7-9.6 11.2-.3-.4-4.3-5.8-8.8-12l-8.3-11.2h-6.9c-5.4 0-6.8.3-6.3 1.2zM903.3 292l.2 31.3 25.3.3 25.2.2v-3.9c0-2.1-.6-4.3-1.3-5-.9-.7-7.5-1-19.5-.8l-18.2.2-.1-25c-.1-13.8-.2-25.7-.3-26.5-.1-1.1-1.6-1.6-5.8-1.8l-5.7-.3.2 31.3zM1054 292.3v31.5h11l.2-21.6.3-21.7 18 21.7 18 21.6h10.5v-63h-12v20.6c.1 11.3-.1 20.8-.3 21.1-.3.2-8.3-9.1-17.8-20.6l-17.4-21.1H1054v31.5zM1137 292.2v31.6h19.3c21.8 0 25.8-.8 32.5-6.6 6-5.1 9.4-12.9 10-22.3.8-14.2-4.4-24.8-14.9-30.6l-5.4-3-20.7-.3-20.8-.3v31.5zm39.8-19.5c7 3.6 10.4 9.9 10.5 19.6 0 7.7-2.8 14.3-7.8 18.1-3.7 2.8-4.2 2.9-17.7 3.2l-13.8.4v-43.2h12.5c10.4 0 13.2.3 16.3 1.9zM1304.7 261.5c-.4.3-.7 14.5-.7 31.5v30.8h12l.2-21.2.3-21.2 17.5 21.1 17.5 21.2 5.3.1h5.2v-63h-11l-.2 21.6-.3 21.7-17.9-21.7-18-21.6h-4.6c-2.6 0-5 .3-5.3.7z"></path> </svg>