<svg class="w-full h-full object-contain fill-current" xmlns="http://www.w3.org/2000/svg" xml:space="preserve" style="enable-background: new 0 0 1878.3 571.3;" viewBox="0 0 1878.3 571.3"> <path d="M276.1 571.3c-5.6-.5-11.1-1-16.7-1.6-50.1-4.7-95.7-21.6-136.9-50.4-7.1-5-13.8-10.6-20.7-16-9.9-7.7-12.5-18.2-11.4-30 1.5-15.7 7.7-29.9 15-43.7 15.6-29.5 35.7-56 57.3-81.3 36.4-42.8 76.1-82.3 120.3-117.1 2.2-1.8 3.6-1.9 5.9-.1 61 49 115.3 104.4 159.9 168.9 12.7 18.3 23.9 37.6 30.2 59.3 2.6 8.8 3.9 17.8 2 27-1.3 6.2-4.3 11.4-9.1 15.5-42.3 36.1-90.8 58.4-145.9 66.1-8.1 1.1-16.3 1.6-24.5 2.4-1.9.2-3.9.5-5.8.8-6.6.2-13.1.2-19.6.2zM295.7 0c5.8.5 11.6 1.1 17.5 1.6 43 3.6 82.5 17.6 119.5 39.4.8.5 1.5 1.2 1.9 2.5-3.4-.4-6.8-1-10.1-1.3-18.2-1.7-35.8 1.3-53.3 6.1-28.7 7.7-55.7 19.7-81.5 34.2-2.7 1.5-4.7 1.5-7.4 0-27.7-15.4-56.6-28.3-87.5-36-15.5-3.9-31.2-6.3-47.2-4.3-3.5.4-6.9 1.1-10.8.9.8-.6 1.5-1.4 2.4-1.9C174 20.5 211.3 6.9 251.6 2.4 260 1.5 268.4.8 276.8 0h18.9zM1209.7 280.3c6.7 4.5 13.6 8.4 19.8 13.4 23.8 19.2 32.9 44.9 31.1 74.8-1.2 20.5-7.6 39-21.1 54.8-15 17.5-34.5 27.3-56.5 32.9-14.7 3.7-29.8 5-44.9 5-44.6 0-89.2-.1-133.7-.1-1.2 0-2.3-.1-3.9-.2-.1-1.7-.3-3.3-.3-5V305.7c0-5.1 0-5.1-5.1-5.1h-65.5c1.1-1.8 1.8-3 2.6-4.1 6.4-8.9 12.9-17.7 19.2-26.6 1.6-2.3 3.3-3.2 6.1-3.1 12.8.1 25.5-.1 38.3.1 3.5.1 4.4-1 4.4-4.4-.1-46-.1-92.1-.1-138.1v-5.3H1139.8c19.4 0 38.5 2.3 56.5 10 31.9 13.5 49.2 38 52.9 72 3.7 34.2-9.3 60.4-38.7 78.5-.3.2-.6.5-.8.7zm-171.6 145.4c1.8.1 3.1.2 4.3.2 32.5 0 64.9.2 97.4-.1 8.8-.1 17.7-.9 26.4-2.4 15.4-2.6 29.7-8.1 40.9-19.6 12.4-12.7 16.3-28.4 15.8-45.6-.6-21.1-9.9-36.9-28.8-46.6-13.4-6.9-28-10.1-42.9-10.3-36.1-.6-72.2-.4-108.3-.7-3.8 0-4.8 1.1-4.8 4.8.1 38.6.1 77.2.1 115.8-.1 1.4-.1 2.8-.1 4.5zm58.6-158.9c14.2 0 28.4.4 42.6-.1 8.9-.3 18-1.1 26.7-3 26.4-5.7 42-21.6 45.3-46.7 3.2-24.5-5.7-45.6-31.8-55.9-13.1-5.1-26.8-6.6-40.6-6.7-32.2-.1-64.4 0-96.6-.1-3.6 0-4.3 1.2-4.3 4.5.1 34.6.1 69.1 0 103.7 0 3.4.9 4.5 4.4 4.4 18.1-.2 36.2-.1 54.3-.1zM59.9 458.9c-1-1.1-2-2.1-2.8-3.3C29.6 418.4 11.6 377 4.8 331.2c-13.2-89 10-167.7 68.9-235.7 2.6-3.1 5.7-5.7 8.2-8.9 4.6-5.9 10.6-6.5 17.2-5.4 12.6 2.1 23.7 7.8 34.3 14.4 24.5 15.2 45.9 34.3 66.5 54.2 2.5 2.4 5 5 7.5 7.4.2.2.2.4.5.9-7.5 9.4-15.1 18.8-22.4 28.4-39.4 51.9-75.3 106-103 165.2-10.1 21.5-18.5 43.6-22.7 67.1-2.3 12.7-3 25.4.7 38 .2.6.1 1.2.2 1.7-.4.1-.6.2-.8.4zM511.4 458.7c.7-3.4 1.4-6.4 1.8-9.4 2.5-16.8-.7-33-5.2-49-9.5-33.3-24.8-64.1-41.7-94-28.9-51.2-62.2-99.4-99.5-144.8-2.6-3.1-2.1-4.6.5-7.2 20.9-20.3 42.3-39.9 66.7-55.9 11.8-7.7 24-14.6 38.2-17.2 7-1.2 12.9-.1 18.3 5.6 40.9 42.9 67.1 93.3 76.4 151.9 12.6 78.7-4.6 150.5-50.9 215.4-1.1 1.5-2.2 2.9-3.3 4.3 0 .1-.4.1-1.3.3zM1278.7 297.6c.2-42.8 6.9-76.5 24.6-107.4 24.4-42.5 60.8-68.3 109.1-76.5 39.7-6.7 77.7-1.3 112.7 19.5 32.9 19.5 55.1 48.1 67.3 83.9 18.3 53.5 17.7 107.1-5.5 159-22.5 50.4-61.7 81.2-116.6 90.2-43 7.1-83.6 0-120.1-24.9-29.9-20.3-49.2-48.7-60.7-82.6-7.3-21.4-10.8-44.2-10.8-61.2zm287.5-6.3c-.2-25-3.9-48.1-13.4-70.1-25.9-59.8-83-83.9-140-70.9-36.8 8.4-63.2 30.9-79.3 64.6-20.7 43.3-22 88.4-6.9 133.5 18.9 56.5 68.5 90.1 128.9 83.7 36-3.8 64.2-20.9 84.7-50.6 18.9-27.4 25.6-58.5 26-90.2z"></path> <path d="M1581.6 119.1c14.8 0 28.8-.1 42.7.1 1.3 0 2.8 1.5 3.7 2.7 25.8 35 51.6 70.1 77.4 105.2 6 8.2 12 16.4 18.4 25 1.2-1.5 2.1-2.6 3-3.8 30.7-41.8 61.5-83.6 92.1-125.4 2.1-2.8 4.2-3.9 7.7-3.8 12.9.2 25.8.1 39.6.1-40.1 54.5-79.8 108.5-119.8 162.9 43.6 59.5 87.1 118.9 131.1 178.9-2 .1-3.3.2-4.5.2-12 0-24-.1-36 .1-2.8 0-4.5-.9-6.1-3.1-34.6-47.2-69.3-94.3-104-141.4-.9-1.2-1.9-2.4-3.1-3.9-8.5 11.5-16.6 22.6-24.8 33.7-27.3 37.2-54.7 74.3-81.9 111.6-1.7 2.4-3.5 3.3-6.4 3.3-11.9-.2-23.7-.1-35.6-.1-1.3 0-2.5-.1-4.6-.2 1.5-2.1 2.6-3.6 3.7-5.2 41.5-56.7 83-113.4 124.6-170 2.2-3 2.1-4.7 0-7.6-38.1-51.6-76.1-103.3-114.1-154.9-.9-1.4-1.7-2.6-3.1-4.4zM673.2 461.1c44.2-60.2 87.7-119.6 131.3-179.1-39.9-54.2-79.6-108.2-119.8-162.9h4.5c11.9 0 23.7.1 35.6-.1 3 0 4.9.9 6.8 3.4 30.8 42.1 61.7 84.1 92.6 126.1.8 1.1 1.7 2.2 2.7 3.6 1.2-1.5 2.1-2.6 2.9-3.7 30.9-42 61.8-84 92.6-126.1 1.7-2.3 3.4-3.4 6.4-3.3 13.2.2 26.3.1 40.4.1-1.1 1.7-1.9 2.9-2.8 4-38.1 51.8-76.2 103.5-114.3 155.2-2.1 2.8-2.1 4.5 0 7.3 42 57.1 83.9 114.3 125.9 171.5.7 1 1.4 2.1 2.6 3.7-1.9.1-3.3.2-4.6.2-11.9 0-23.7-.1-35.6.1-3 0-4.7-1-6.4-3.3-34.2-46.6-68.4-93-102.7-139.5-1.2-1.7-2.5-3.3-4.1-5.5-1.1 1.4-2.1 2.5-2.9 3.7-34.7 47.1-69.4 94.3-104 141.5-1.8 2.4-3.5 3.3-6.5 3.2-13.3-.2-26.4-.1-40.6-.1z"></path> </svg>