<svg class="w-full h-full object-contain fill-current" xmlns="http://www.w3.org/2000/svg" xml:space="preserve" style="enable-background: new 0 0 2306.6 826.8;" viewBox="0 0 2306.6 826.8"> <path d="M1917 432.7c-5.5-18.4-12.4-34.5-22.6-49.2-10-14.3-22.3-26.3-37.5-36.7 2.6-3.6 4.6-6.5 6.7-9.4 14.6-20.4 27.6-41.7 35.4-65.7 4.9-15 7.8-30.3 6.2-46.2-2.4-23.2-12.7-42.5-28.9-58.9-17.9-18.1-39.6-30.2-62.7-40.1-33.3-14.2-68.1-23-103.5-29.5-50.5-9.3-101.6-13.9-152.8-16.7-70.6-3.9-141.3-3.6-211.9-.8-56.3 2.2-112.5 5.6-168.6 9.9-52.5 4-104.8 9.4-157.2 15.1-52 5.6-104 11.4-155.7 18.9-77.1 11.2-154 23.9-231 35.9-3 .5-6.3 2.7-9-.7.5-4.4 3.8-4.3 6.6-4.9 32.3-6.7 64.4-13.9 96.8-20.1 65.7-12.6 131.5-25 197.4-36.7 51.1-9.1 102.4-17.2 153.8-25.2 48-7.5 96.1-14.5 144.3-21.1 45.2-6.2 90.5-11.6 135.8-17.1 33.1-4 66.2-7.8 99.3-11.1 31.8-3.2 63.7-6.2 95.5-8.7 44.5-3.4 89.1-6.4 133.6-9.3 16-1.1 31.9-1.7 47.9-2.2 64.3-2.1 128.6-3.3 192.9 0 57.9 2.9 115.6 7.9 172.3 21.5 23.4 5.6 46.5 12.3 67.8 23.6 12 6.4 23.8 13.7 34.2 22.3 23.1 19.1 29.9 43.9 22 72.8-5.2 18.9-14.5 35.7-25.6 51.7-19.1 27.6-42 51.7-66.3 74.6-49.4 46.5-103.3 87.3-158.7 126.2-15.5 10.9-31.3 21.5-47 32.2-2.8 1.6-5.6 3.3-9.5 5.6z"></path> <path d="M2118.3 630.7c-2.7 3.7-4.7 6.7-6.9 9.4-7.1 8.8-14 17.8-21.7 26-7 7.4-15.9 12.1-26 14-19.8 3.7-33-8-31-28 .9-8.6 2.7-17.1 5-25.4 9.6-34.6 19.6-69.2 29.3-103.8 2-7 3.1-14.3 4.4-21.5.4-1.9.5-4 .5-6-.1-11.3-7.1-16.9-17.7-13.4-5.6 1.8-11.2 4.7-15.8 8.3-10 7.8-19.8 15.8-28.9 24.6-16.6 15.9-32.4 32.6-48.9 48.7-4.7 4.6-7.5 9.8-8.8 16.3-5.4 27.1-11 54.1-16.6 81.2-.7 3.6-1.7 7.1-2.6 11.2h-35.4c.5-3.2.8-6.1 1.5-9 12.2-52.9 24.5-105.7 36.8-158.6.5-1.9.7-3.9 1.1-5.9 1.9-10.6-.7-14.5-11.3-14.8-6.9-.2-13.9.7-21.9 1.2-.7 6.4-1.2 12.3-1.9 18.1-6.5 59.6-31.6 109.2-81.1 144.2-42.6 30.2-90.6 39.5-141.7 30.7-49.5-8.5-86.5-45.3-96.4-96.2-13.5-69.6 6.4-130.1 54.5-181 37.9-40.1 85.5-59 140.8-57.7 63.2 1.5 110.8 42.4 121.9 104.6 1.4 8.1 2.4 16.4 3.7 25.7 26.1-4.2 50.5-12.9 76.7-20.7-7.2 32.3-14.2 63.5-21.1 94.7.7.4 1.5.8 2.2 1.1 2.4-2.5 4.8-5.1 7.2-7.6 18.2-18.6 35.9-37.6 54.8-55.4 9.3-8.9 20.4-16 31.1-23.3 8.6-5.9 18.5-9.1 28.9-10.4 17.9-2.2 29.3 7.7 28.3 25.8-.6 9.9-2.6 19.8-5.1 29.4-9.6 36.4-19.7 72.6-29.4 109-2 7.4-3.2 15-4.2 22.5-.6 4.3 0 8.9 4.4 11.5 4.3 2.5 8.5 1 12.2-1.4 11.7-7.7 19.4-19 26.4-30.8 1.2-2 .8-5.2.7-7.8-1.6-68.2 48.8-128.8 99.3-149.8 16.3-6.7 33-9.9 50.7-7.4 31.1 4.5 46.3 27.2 38.1 57.6-3.8 14.1-12.2 25-23.5 33.9-15.2 11.9-32.8 18.9-51.2 24.1-20.9 5.9-42.3 8.9-64 10.1-2.9.2-5.9.5-8.5.7-12.3 30.8 3.4 65.7 32.6 73.2 14.7 3.8 29.1 2 42.9-4.2 16.1-7.2 29.3-18.2 40.5-31.8 1.9-2.3 3.8-4.6 5.8-6.9.2-.2.6-.2 1.6-.6 1.2.7 2.8 1.7 4.2 2.6.1 1.1.4 1.9.1 2.4-18.7 34.7-45.9 58.4-85.7 65.4-32.9 5.7-66.4-7.5-78.7-44.1-.4-1.2-1-2.2-2.2-4.7zm-266.2-153.9c0-6.3.5-12.7-.1-19-2.9-30.1-13.4-57-35.5-78.3-16.5-16-36.3-24.2-59.7-23-25.3 1.3-45.9 12.7-63.8 29.6-18.5 17.4-32 38.3-42.2 61.3-17.4 39.3-27.5 80-21.4 123.3 3.7 26.8 14.2 50.6 33.8 69.7 16.2 15.8 35.7 24 58.6 23.2 24.5-.9 46.1-9.4 65-24.9 15.7-12.9 27.6-28.8 37-46.6 19-36.1 28.1-74.7 28.3-115.3zm307.2 92.7c40.6-1.9 75.4-11.8 100.2-44 4.2-5.4 7.1-12.1 9.4-18.5 3.3-9.2 4.1-18.8 1.1-28.4-3.1-9.9-10-15.5-20.3-16.3-8.3-.7-16.2.9-22.7 5.8-8.5 6.3-17 12.9-24 20.8-17.8 20.1-30.8 43.2-40.1 68.4-1.2 3.3-2 6.8-3.6 12.2zM563.1 677.2c15.2-85.3 30.2-170 45.4-255.2h81.1c-1.7 9.8-3.3 19.2-5.2 30.6 3.3-2.7 5-3.9 6.5-5.4 13.2-12.5 29.6-18.9 46.7-23.7 21.9-6.2 44.2-6.9 66.3-2.3 34 7 56.2 34.1 57.7 68.6 2.7 60.2-36.3 110.5-94.8 121.9-18.7 3.7-37.7 4.1-56.6.7-12.7-2.3-24.3-6.9-33.4-16.6-1.5-1.6-3.4-2.9-6.6-5.4-5.2 29.7-10.2 58-15.2 86-7.4 2.4-76.1 3-91.9.8zm207.3-176.9c.3-19.2-10.3-32.5-28.3-35.2-9.7-1.4-19.3-.7-28.5 2.9-24.9 9.7-39.5 39-32.8 65.7 2.8 11.2 10.1 18 20.6 21.1 22 6.6 48.8-.4 61.4-24.8 4.7-9.3 7.5-19.2 7.6-29.7zM316.5 357.4c-3.9 21.9-7.6 42.7-11.5 64.6-4.5-2-8-3.6-11.5-5.3-37.9-17.9-76.6-18.4-115.3-3.5-25.2 9.7-44.1 27.1-55.8 51.7-15.5 32.8-3.2 64.8 30.1 79.2 10.5 4.5 21.5 7.2 32.9 7.7 24.7 1.1 49.2-.4 73.6-5.1 3.9-.7 7.8-1.2 12.2-2 0 3.3.4 5.9-.1 8.4-2.9 16.4-6.4 32.7-9 49.1-1.2 7.9-1.2 10-12.2 10.5-24.3 1.1-48.6 2.3-72.8 3.3-31.3 1.3-61.9-2.9-91.3-13.3-13.1-4.6-26-10.5-37.9-17.7-39.8-24.2-54.8-60.9-45-106.1 8.4-38.7 29.8-68.5 61.7-91.3 29.5-21.1 62.8-33.2 98.2-39.9 33.2-6.3 66.7-8.2 100.4-4.2 17.9 2 35.2 6.5 53.3 13.9zM1407.3 611.5h-94.9c-.7-7.8-1.3-14.9-2.1-23.3-3.7 1.7-6.4 2.8-8.9 4.1-38.2 20.6-79 24.5-121.3 18.5-16.6-2.3-28.8-11.6-38.6-24.5-6.8-9-7.1-19.2-4.4-29.6 3.6-13.9 12-24.2 24.3-31.7 15.9-9.7 33.4-15.1 51.7-17.5 24.8-3.2 49.7-5.3 74.4-8.5 10.2-1.3 20.3-3.7 30.1-6.7 9.5-2.9 12.9-8.5 12.4-16.9-.4-7.4-4.3-11.9-14.7-13.5-11.5-1.7-23.2-2.8-34.8-2.4-30 .9-59.6 5.7-89 12-3.2.7-6.4 1.3-11.6 2.3 6.1-16.8 11.8-32.1 17.7-48.3 14.5-1.9 29-4.2 43.4-5.7 33.1-3.6 66.4-5.9 99.8-4.5 12.6.5 25.2 2.4 37.6 4.3 5.8.9 11.6 3.1 17.1 5.4 21 9 28.7 22.9 24.9 45.4-6.2 36.8-12.6 73.5-19.3 110.2-2 10.9-3.6 21.2 8.2 28.9-.6.7-1.3 1.4-2 2zm-87.9-86.6c-.9-.1-1.9-.4-2.7-.2-18.6 3.5-37.3 6.9-55.8 10.8-6.1 1.3-12.3 3.4-17.7 6.3-7.2 3.8-11 12-9.4 18.3 1.8 7.5 7.7 10.3 14.6 11.8 16.9 3.5 33.1 1.2 48.6-6.2 15.9-7.7 23.7-22 22.4-40.8zM560.4 609.7c-10 2.8-87.7 2.7-97.6.2-.4-6.6-.8-13.4-1.3-21.4-3.2 1.2-5.7 1.8-7.9 3-37.7 20.8-78.1 25.1-120.1 19.6-16.9-2.2-29.9-10.6-40.2-23.7-6-7.8-8.1-16.6-6.2-26.3 3.1-15.5 11.4-27.4 24.9-35.8 15.6-9.7 32.7-15.1 50.6-17.4 24.8-3.2 49.7-5.2 74.4-8.6 11.4-1.6 22.7-4.8 33.9-7.9 5.4-1.5 8.8-5.6 9.6-11.6 1.2-9-1.4-14.7-10.3-16.6-10.3-2.2-21.1-4.1-31.6-3.6-21.9 1.2-43.8 3.6-65.5 6.3-11.5 1.4-22.9 4.4-34.3 6.6-1.9.4-3.8.3-7.5.6 5.1-16.4 11.3-31.3 17-47.2 8-1.2 16.1-2.7 24.3-3.7 40-5 80.2-8.4 120.6-6.7 13.9.6 27.7 3.1 41.4 5.5 5.8 1 11.4 3.6 16.7 6.3 14.9 7.5 22.7 19.6 20.3 36.5-2.7 19.8-6.1 39.5-9.4 59.1-3.4 20-7 40-10.8 59.9-1.6 10.1-1.3 19.4 9 26.9zm-89.6-85.1c-.6-.2-1.2-.6-1.8-.5-19.6 3.7-39.1 7.3-58.6 11.4-5.8 1.2-11.5 3.4-16.7 6.2-6.5 3.7-9.9 9.9-8.7 17.6 1.1 7.9 7.2 10.6 13.9 12.3 15.8 3.8 31.1 1.4 45.8-4.7 18.4-7.6 26.6-21.2 26.1-42.3zM1002 419.3h35.7c.9-2.9 1.8-5.3 2.3-7.8 1.3-6.9 2.8-13.7 3.6-20.6 1.5-12.1 1.7-10.8 13.4-13.4l77.1-16.8c2.2-.5 4.4-.6 8.1-1.1-3.3 20.1-6.4 39.2-9.7 59.6h47.7c-3.1 13.2-5.8 25-8.7 37.4H1125c-10.3 51.3-18.7 102.3-28.6 152.9-7.5 2.1-82 2.4-93.8.4 9.2-50.3 18.4-100.6 27.7-151.9-11.7-2.3-23 0-35-1.7 2.3-12.5 4.4-24.2 6.7-37zM1517.3 611h-92.7c-1-8.7 38-232.6 46.2-265.1 7.8-1.9 80.6.1 91.6 2.8-15 87-30 174.1-45.1 262.3zM951.9 610.9H861c-1-8.4 26.6-169.2 32.2-188.9 8.1-2.3 82.1-2.5 92.1.1-11.1 62.7-22.2 125.5-33.4 188.8zM1220.7 826.1c-1.3-5.2 2.9-5.9 5.4-7.5 19.5-12.1 39.1-24.1 58.7-36.2 92.6-57.3 184.7-115.5 273.9-178.1 1.8-1.3 3.9-2.3 6-3.5 5.1 11.3 9.9 22.2 14.8 33.1-7.2 7.1-333.6 184.1-354.3 192.1-1.3.5-3 .1-4.5.1zM941.7 403.1c-10.4.2-21.2-1.6-31-7.2-16.1-9.1-17.2-23.8-2.7-35.2 8.5-6.8 18.6-10.2 29.2-12 14.7-2.5 29.2-2.3 43.1 3.5 8.4 3.5 16.5 8.1 17.5 18.5 1.1 10.9-6.2 17.1-14.3 22.1-12.6 7.7-26.5 10.5-41.8 10.3z"></path> </svg>