<svg class="w-full h-full object-contain fill-current" xmlns="http://www.w3.org/2000/svg" xml:space="preserve" style="enable-background: new 0 0 249.8 192.5;" viewBox="0 0 249.8 192.5"> <path d="M95.3 0c7.9 1.9 15 3.4 21.9 5.5 13.5 4.1 27.2 7.9 40.4 12.9 28 10.7 39.6 28.7 38.1 58.6-.4 7.1-1.7 14.9-4.9 21.1-9 17.3-25.3 16.1-38.7 9.6-1-.5-1.5-3.1-1.5-4.7-.1-17.3 0-34.7-.1-52 0-3 .2-6.2-.7-8.9-1-3.2-2.6-6.7-5-8.7-4.9-4-9.3-1.8-10 4.6-.3 2.8-.3 5.7-.3 8.5v146.1c-12.9-3.9-25.1-7.6-37.2-11.5-1-.3-1.8-2.6-1.8-4-.2-7.3-.1-14.7-.1-22V6.6c-.1-2-.1-3.9-.1-6.6z"></path> <path d="M144.6 188.7c0-7.3-.2-14.3.2-21.2.1-1.3 2.3-3 3.9-3.5 18.4-6.8 36.8-13.5 55.3-20.2 2-.7 4.1-1.4 6-2.5 1.4-.9 2.4-2.4 3.6-3.6-1.5-1.1-2.9-3.1-4.5-3.2-5.5-.5-11.5-1.6-16.6-.1-14.1 4-27.8 9.1-41.6 13.8-1.8.6-3.7 1.2-6.1 2 0-7.7-.1-14.7.1-21.6 0-1.1 1.6-2.8 2.8-3.1 29.8-8.8 59.3-9.2 88.5 2.6 3.1 1.2 6 2.9 8.7 4.9 6.7 5 7 12.9-.1 17.4-6.7 4.3-13.9 7.9-21.3 10.6-25.1 9.3-50.4 18-75.6 27-1.1.1-1.8.3-3.3.7zM83 147.9v21c-10.8.2-21.4 1-32 .4-14.5-.9-28.8-3.4-41.9-10.1-1.3-.7-2.6-1.4-3.8-2.4-6.9-5.4-7.2-11.7-.1-16.7 4.4-3.2 9.3-6 14.3-7.9 20.2-7.6 40.6-14.8 61-22.1.6-.2 1.3-.3 2.7-.6 0 7.4.2 14.5-.2 21.5-.1 1.1-2.2 2.6-3.7 3.2-10.4 3.9-21 7.5-31.4 11.3-2.5.9-5 1.9-7.3 3.3-1.2.7-2 2.3-3 3.4 1.4 1 2.6 2.6 4.2 3 9.5 2.1 18.8 1 27.9-2.3 4.2-1.5 8.4-3.1 13.3-5z"></path> </svg>